<?xml version="1.0" encoding="utf-8"?>
<svg contentScriptType="text/ecmascript" xmlns:xlink="http://www.w3.org/1999/xlink" zoomAndPan="magnify" contentStyleType="text/css" viewBox="-15.0 -15.0 458.2878662687624 163.2413787841797" xmlns:cacoo="http://cacoo.com/" preserveAspectRatio="xMidYMin meet" xmlns="http://www.w3.org/2000/svg" version="1.1"><g><path fill="#000000" fill-opacity="1.0" d="M328.82061076758026 130.02808780315144 Q294.603902970592 127.39557159218921 261.6805644970134 109.35537270156065 Q233.82644807955515 94.09282245986472 214.14687335259555 72.36432400113102 Q194.4662368801697 94.09400671442329 166.61432562637222 109.35537270156065 Q133.6908646437013 127.39565326491737 99.46880728301753 130.02808780315144 Q57.63166641984688 133.24113376599516 30.22838346192514 114.88914923555127 Q0.0 94.64517512052517 2.5638294465654634 56.27201967752178 Q3.6310061492890546 40.18322728122415 12.963258761695473 28.4094092963331 Q24.089085321230918 14.372807540936673 41.61633864254438 15.775699992831454 Q45.164977845467014 16.053223923176592 47.94442329441952 17.223879972500328 Q48.01025151333011 17.223879972500328 48.06729991396168 17.285338700453455 Q65.54195599832921 21.890332969616246 65.54195599832921 40.00415982469627 Q65.54195599832921 63.565557649176185 41.9805581738493 63.565557649176185 Q21.6927666401563 63.565557649176185 18.71759249812783 43.62017902836487 Q18.579524751144767 43.36246073460263 18.480619077322526 43.25595949705993 Q12.910457342929103 58.17082893490676 21.07634172424107 73.110363536663 Q28.865714828657488 87.36102951261111 41.61633864254438 89.53617844578267 Q60.263406739891444 92.7722152816082 77.50219198528407 81.36327020984747 Q84.64561548254929 76.63560350296297 92.47835680562764 68.84410690761395 Q98.23918352395006 63.113580771445164 106.51659201558762 53.445857428052086 Q107.90947955828072 51.819018355496226 109.97102172655818 49.38749872857735 Q110.1290584555805 49.20108072651355 111.69831825477165 47.34911077873804 Q112.74646521183001 46.11209563777056 113.42773827391771 45.30990610161695 Q117.59390497458598 40.40415201094269 120.39687216925343 37.22557193938963 Q128.44563785835973 28.09819536561498 134.8990901479864 22.240341446218395 Q151.8963691361599 6.811832220866984 168.88915612428366 4.203409464716928 Q196.2146049722528 0.0 214.14250386163812 17.522271284894668 Q232.06864678736758 0.0016742909276266506 259.3958515989925 4.203409464716928 Q276.38418742343066 6.810362111759799 293.38028215704554 22.237891264373086 Q299.8333260830314 28.09541849285697 307.88209177213764 37.222468375718904 Q310.6855898395383 40.40149764727694 314.8514706856579 45.306639192489875 Q315.52837425678814 46.103683346768335 316.58097237753213 47.34580303324687 Q318.0780334850149 49.11258832553387 318.30835057847383 49.384190983086185 Q320.37385387406783 51.82024344641887 321.7629436349007 53.44250884619684 Q330.04080132654326 63.110273025953994 335.80207724487065 68.84100334394323 Q343.6353086043181 76.6327041211127 350.77914046522415 81.36082002800217 Q368.0187016015345 92.77078600886509 386.66425875341025 89.53617844578267 Q399.40765453085356 87.35764009439177 407.19384239887097 73.10868924573538 Q415.3563781983278 58.17107395309129 409.79560882767464 43.25595949705993 Q409.6730180626811 43.38320560755956 409.5630048978268 43.62017902836487 Q406.56577911919055 63.56551681281209 386.2955880584197 63.56551681281209 Q362.7254104156608 63.56551681281209 362.7254104156608 40.00411898833218 Q362.7254104156608 21.888291151411824 380.20010733639236 17.285297864089365 Q380.2615252279814 17.223879972500328 380.3230247922986 17.223879972500328 Q383.10937158678206 16.053060577720238 386.65543809876715 15.775699992831454 Q404.18281392917294 14.372766704572584 415.3058227795862 28.409368459969013 Q424.63587022833184 40.18351313577276 425.6992491491953 56.271978841157704 Q428.2878662687624 94.64370501141798 398.0610345886726 114.88914923555127 Q370.66065101260114 133.2413787841797 328.82061076758026 130.02808780315144" stroke="none"/></g></svg>